<?xml version="1.0" encoding="utf-8"?>
<?xml-stylesheet type="text/xsl" href="rss1.xsl"?>
<rss version="2.0" xmlns:atom="http://www.w3.org/2005/Atom" xmlns:content="http://purl.org/rss/1.0/modules/content/" xmlns:dc="http://purl.org/dc/elements/1.1/" xmlns:media="http://search.yahoo.com/mrss/">
<channel>
 <title>Getty</title>
 <link>http://www.gettyimg.com/</link>
 <atom:link href="http://www.gettyimg.com/" rel="self" type="application/rss+xml" />

 
                <item>
                <title><![CDATA[【HD Live Performances】FEED - Philadelphia 4th of July Concert (2024) 1080i HDTV Backhaul MPA2.0 H.264-TrollHD]]></title>
                <link><![CDATA[https://sharemania.us/threads/philadelphia-4th-of-july-concert-2024-1080i-hdtv-backhaul-mpa2-0-h-264-trollhd.249364/]]></link>
                <description><![CDATA[<article>
<blockquote class="messageText SelectQuoteContainer ugc baseHtml">
<div style="padding-left: 30px"><div style="padding-left: 30px"><div style="padding-left: 30px"><div style="padding-left: 30px"><div style="padding-left: 30px"><b><span style="font-size: 22px"><span style="color: rgb(255, 77, 77)">Philadelphia 4th of July Concert (2024) </span></span></b>​</div><b><span style="font-size: 22px"><span style="color: rgb(255, 77, 77)">1080i HDTV Backhaul MPA2.0 H.264-TrollHD</span></span></b>​</div></div></div></div><br>
<img src="https://images2.imgbox.com/9a/9c/KFxcBqQj_o.jpg" class="bbCodeImage LbImage" alt="[​IMG]" data-url="https://images2.imgbox.com/9a/9c/KFxcBqQj_o.jpg" style=""><br>
<br>
<div class="bbCodeBlock bbCodeCode">
<div class="type">Code:</div>
<pre>General
Unique ID                      : 169609115403082705325872555827327362747 (0x7F998704F8431D154FAF6978091F66BB)
Format                         : Matroska
Format version                 : Version 4
File size                      : 11.6 GiB
Duration                       : 2 h 57 min
Overall bit rate mode          : Constant
Overall bit rate               : 9 359 kb/s
Encoded date                   : UTC 2024-07-05 17:16:07
Writing application            : mkvmerge v77.0 ('Elemental') 64-bit
Writing library                : libebml v1.4.4 + libmatroska v1.7.1

Video
ID                             : 1
Format                         : AVC
Format/Info                    : Advanced Video Codec
Format profile                 : High@L4
Format settings                : CABAC / 3 Ref Frames
Format settings, CABAC         : Yes
Format settings, Reference fra : 3 frames
Format settings, GOP           : M=3, N=15
Codec ID                       : V_MPEG4/ISO/AVC
Duration                       : 2 h 57 min
Bit rate mode                  : Constant
Bit rate                       : 9 000 kb/s
Width                          : 1 920 pixels
Height                         : 1 080 pixels
Display aspect ratio           : 16:9
Frame rate mode                : Variable
Frame rate                     : 59.940 (59940/1000) FPS
Original frame rate            : 29.970 (30000/1001) FPS
Color space                    : YUV
Chroma subsampling             : 4:2:0
Bit depth                      : 8 bits
Scan type                      : Interlaced
Scan type, store method        : Separated fields
Scan order                     : Top Field First
Bits/(Pixel*Frame)             : 0.072
Stream size                    : 11.1 GiB (96%)
Writing library                : x264 core 160 r3000
Encoding settings              : cabac=1 / ref=3 / deblock=1:0:0 / analyse=0x3:0x113 / me=hex / subme=4 / psy=1 / psy_rd=1.00:0.00 / mixed_ref=0 / me_range=16 / chroma_me=1 / trellis=1 / 8x8dct=1 / cqm=0 / deadzone=21,11 / fast_pskip=1 / chroma_qp_offset=0 / threads=16 / lookahead_threads=4 / sliced_threads=0 / nr=0 / decimate=1 / interlaced=tff / bluray_compat=0 / constrained_intra=0 / bframes=3 / b_pyramid=2 / b_adapt=1 / b_bias=0 / direct=1 / weightb=1 / open_gop=0 / weightp=0 / keyint=15 / keyint_min=1 / scenecut=0 / intra_refresh=0 / rc_lookahead=15 / rc=abr / mbtree=1 / bitrate=8625 / ratetol=1.0 / qcomp=0.60 / qpmin=0 / qpmax=69 / qpstep=4 / vbv_maxrate=9000 / vbv_bufsize=4500 / nal_hrd=none / filler=0 / ip_ratio=1.40 / aq=1:1.00
Default                        : Yes
Forced                         : No
Color range                    : Limited
Color primaries                : BT.709
Transfer characteristics       : BT.709
Matrix coefficients            : BT.709

Audio
ID                             : 2
Format                         : MPEG Audio
Format version                 : Version 1
Format profile                 : Layer 2
Format settings                : Intensity Stereo + MS Stereo
Codec ID                       : A_MPEG/L2
Codec ID/Hint                  : MP2
Duration                       : 2 h 57 min
Bit rate mode                  : Constant
Bit rate                       : 384 kb/s
Channel(s)                     : 2 channels
Sampling rate                  : 48.0 kHz
Frame rate                     : 41.666 FPS (1152 SPF)
Compression mode               : Lossy
Stream size                    : 489 MiB (4%)
Language                       : English
Default                        : Yes
Forced                         : No

Menu
00:02:32.000                   : en:Adam Blackstone
00:46:16.000                   : en:Kesha
01:51:45.000                   : en:Ne-Yo
02:39:47.000                   : en:Fireworks

</pre>
</div>
<div class="bbCodeBlock bbCodeVfcHH HiddenContent">
<div class="attribution type">Hidden Content:</div>
<blockquote>You must either reply or click 'Like' to see the hidden information contained here.</blockquote>
</div><br>
<br>
<b><span style="color: rgb(255, 77, 77)">Credits goes to <a href="https://sharemania.us/members/1219/" class="username" data-user="1219, @TrollHD">@TrollHD</a> !!!<br>
<br>
<img src="styles/default/xenforo/smilies/super_man-48.png" class="mceSmilie" alt=":super:" title="Super Man    :super:"><img src="styles/default/xenforo/smilies/super_man-48.png" class="mceSmilie" alt=":super:" title="Super Man    :super:"><img src="styles/default/xenforo/smilies/super_man-48.png" class="mceSmilie" alt=":super:" title="Super Man    :super:"></span></b>
<div class="messageTextEndMarker">&nbsp;</div>
</blockquote>
</article>]]></description>
                <author><![CDATA[Dream66]]></author>
                </item>

                
                <item>
                <title><![CDATA[【Apple Music】WEB-RiP - YouNotUs - Samba (feat. Louis III) (1080p)]]></title>
                <link><![CDATA[https://sharemania.us/threads/younotus-samba-feat-louis-iii-1080p.249363/]]></link>
                <description><![CDATA[<article>
<blockquote class="messageText SelectQuoteContainer ugc baseHtml">
<b><span style="font-size: 22px"><span style="color: rgb(255, 77, 77)">*Sadly they added tv logo for <span style="text-decoration: underline">Ne-Yo</span> set and after that they just removed for fireworks show <img src="styles/default/xenforo/smilies/exciting-48.png" class="mceSmilie" alt=":D" title="Big Grin    :D"></span></span></b>
<div class="messageTextEndMarker">&nbsp;</div>
</blockquote>
</article>]]></description>
                <author><![CDATA[vitalya3]]></author>
                </item>

                </channel></rss>